<svg width="25" height="25" viewBox="0 0 25 25" fill="none" xmlns="http://www.w3.org/2000/svg">
<path d="M20.3043 11.1435L12.2671 18.7236C11.2825 19.6522 9.94706 20.1739 8.5546 20.1739C7.16214 20.1739 5.82671 19.6522 4.84209 18.7236C3.85747 17.795 3.30432 16.5355 3.30432 15.2222C3.30432 13.909 3.85747 12.6495 4.84209 11.7209L12.8793 4.14077C13.5357 3.52169 14.426 3.1739 15.3543 3.1739C16.2826 3.1739 17.1729 3.52169 17.8293 4.14077C18.4857 4.75985 18.8545 5.5995 18.8545 6.47501C18.8545 7.35052 18.4857 8.19018 17.8293 8.80925L9.78336 16.3893C9.45515 16.6989 9.01001 16.8728 8.54586 16.8728C8.0817 16.8728 7.63656 16.6989 7.30835 16.3893C6.98015 16.0798 6.79576 15.66 6.79576 15.2222C6.79576 14.7845 6.98015 14.3646 7.30835 14.0551L14.7333 7.06064" stroke="#7381B1" stroke-width="1.5" stroke-linecap="round" stroke-linejoin="round"/>
</svg>
